<svg id="my-svg" width="100%" xmlns="http://www.w3.org/2000/svg" xmlns:xlink="http://www.w3.org/1999/xlink" class="flowchart" style="max-width: 1385.2px; background-color: transparent;" viewBox="0 0 1385.19921875 775.2179565429688" role="graphics-document document" aria-roledescription="flowchart-v2"><style>#my-svg{font-family:"trebuchet ms",verdana,arial,sans-serif;font-size:16px;fill:#333;}@keyframes edge-animation-frame{from{stroke-dashoffset:0;}}@keyframes dash{to{stroke-dashoffset:0;}}#my-svg .edge-animation-slow{stroke-dasharray:9,5!important;stroke-dashoffset:900;animation:dash 50s linear infinite;stroke-linecap:round;}#my-svg .edge-animation-fast{stroke-dasharray:9,5!important;stroke-dashoffset:900;animation:dash 20s linear infinite;stroke-linecap:round;}#my-svg .error-icon{fill:#552222;}#my-svg .error-text{fill:#552222;stroke:#552222;}#my-svg .edge-thickness-normal{stroke-width:1px;}#my-svg .edge-thickness-thick{stroke-width:3.5px;}#my-svg .edge-pattern-solid{stroke-dasharray:0;}#my-svg .edge-thickness-invisible{stroke-width:0;fill:none;}#my-svg .edge-pattern-dashed{stroke-dasharray:3;}#my-svg .edge-pattern-dotted{stroke-dasharray:2;}#my-svg .marker{fill:#333333;stroke:#333333;}#my-svg .marker.cross{stroke:#333333;}#my-svg svg{font-family:"trebuchet ms",verdana,arial,sans-serif;font-size:16px;}#my-svg p{margin:0;}#my-svg .label{font-family:"trebuchet ms",verdana,arial,sans-serif;color:#333;}#my-svg .cluster-label text{fill:#333;}#my-svg .cluster-label span{color:#333;}#my-svg .cluster-label span p{background-color:transparent;}#my-svg .label text,#my-svg span{fill:#333;color:#333;}#my-svg .node rect,#my-svg .node circle,#my-svg .node ellipse,#my-svg .node polygon,#my-svg .node path{fill:#ECECFF;stroke:#9370DB;stroke-width:1px;}#my-svg .rough-node .label text,#my-svg .node .label text,#my-svg .image-shape .label,#my-svg .icon-shape .label{text-anchor:middle;}#my-svg .node .katex path{fill:#000;stroke:#000;stroke-width:1px;}#my-svg .rough-node .label,#my-svg .node .label,#my-svg .image-shape .label,#my-svg .icon-shape .label{text-align:center;}#my-svg .node.clickable{cursor:pointer;}#my-svg .root .anchor path{fill:#333333!important;stroke-width:0;stroke:#333333;}#my-svg .arrowheadPath{fill:#333333;}#my-svg .edgePath .path{stroke:#333333;stroke-width:2.0px;}#my-svg .flowchart-link{stroke:#333333;fill:none;}#my-svg .edgeLabel{background-color:rgba(232,232,232, 0.8);text-align:center;}#my-svg .edgeLabel p{background-color:rgba(232,232,232, 0.8);}#my-svg .edgeLabel rect{opacity:0.5;background-color:rgba(232,232,232, 0.8);fill:rgba(232,232,232, 0.8);}#my-svg .labelBkg{background-color:rgba(232, 232, 232, 0.5);}#my-svg .cluster rect{fill:#ffffde;stroke:#aaaa33;stroke-width:1px;}#my-svg .cluster text{fill:#333;}#my-svg .cluster span{color:#333;}#my-svg div.mermaidTooltip{position:absolute;text-align:center;max-width:200px;padding:2px;font-family:"trebuchet ms",verdana,arial,sans-serif;font-size:12px;background:hsl(80, 100%, 96.2745098039%);border:1px solid #aaaa33;border-radius:2px;pointer-events:none;z-index:100;}#my-svg .flowchartTitleText{text-anchor:middle;font-size:18px;fill:#333;}#my-svg rect.text{fill:none;stroke-width:0;}#my-svg .icon-shape,#my-svg .image-shape{background-color:rgba(232,232,232, 0.8);text-align:center;}#my-svg .icon-shape p,#my-svg .image-shape p{background-color:rgba(232,232,232, 0.8);padding:2px;}#my-svg .icon-shape .label rect,#my-svg .image-shape .label rect{opacity:0.5;background-color:rgba(232,232,232, 0.8);fill:rgba(232,232,232, 0.8);}#my-svg .label-icon{display:inline-block;height:1em;overflow:visible;vertical-align:-0.125em;}#my-svg .node .label-icon path{fill:currentColor;stroke:revert;stroke-width:revert;}#my-svg :root{--mermaid-font-family:"trebuchet ms",verdana,arial,sans-serif;}</style><g><marker id="my-svg_flowchart-v2-pointEnd" class="marker flowchart-v2" viewBox="0 0 10 10" refX="5" refY="5" markerUnits="userSpaceOnUse" markerWidth="8" markerHeight="8" orient="auto"><path d="M 0 0 L 10 5 L 0 10 z" class="arrowMarkerPath" style="stroke-width: 1; stroke-dasharray: 1, 0;"/></marker><marker id="my-svg_flowchart-v2-pointStart" class="marker flowchart-v2" viewBox="0 0 10 10" refX="4.5" refY="5" markerUnits="userSpaceOnUse" markerWidth="8" markerHeight="8" orient="auto"><path d="M 0 5 L 10 10 L 10 0 z" class="arrowMarkerPath" style="stroke-width: 1; stroke-dasharray: 1, 0;"/></marker><marker id="my-svg_flowchart-v2-circleEnd" class="marker flowchart-v2" viewBox="0 0 10 10" refX="11" refY="5" markerUnits="userSpaceOnUse" markerWidth="11" markerHeight="11" orient="auto"><circle cx="5" cy="5" r="5" class="arrowMarkerPath" style="stroke-width: 1; stroke-dasharray: 1, 0;"/></marker><marker id="my-svg_flowchart-v2-circleStart" class="marker flowchart-v2" viewBox="0 0 10 10" refX="-1" refY="5" markerUnits="userSpaceOnUse" markerWidth="11" markerHeight="11" orient="auto"><circle cx="5" cy="5" r="5" class="arrowMarkerPath" style="stroke-width: 1; stroke-dasharray: 1, 0;"/></marker><marker id="my-svg_flowchart-v2-crossEnd" class="marker cross flowchart-v2" viewBox="0 0 11 11" refX="12" refY="5.2" markerUnits="userSpaceOnUse" markerWidth="11" markerHeight="11" orient="auto"><path d="M 1,1 l 9,9 M 10,1 l -9,9" class="arrowMarkerPath" style="stroke-width: 2; stroke-dasharray: 1, 0;"/></marker><marker id="my-svg_flowchart-v2-crossStart" class="marker cross flowchart-v2" viewBox="0 0 11 11" refX="-1" refY="5.2" markerUnits="userSpaceOnUse" markerWidth="11" markerHeight="11" orient="auto"><path d="M 1,1 l 9,9 M 10,1 l -9,9" class="arrowMarkerPath" style="stroke-width: 2; stroke-dasharray: 1, 0;"/></marker><g class="root"><g class="clusters"><g class="cluster" id="Backend" data-look="classic"><rect style="" x="106.34765625" y="542" width="1206.94140625" height="225.2179412841797"/><g class="cluster-label" transform="translate(679.896484375, 542)"><foreignObject width="59.84375" height="24"><div xmlns="http://www.w3.org/1999/xhtml" style="display: table-cell; white-space: nowrap; line-height: 1.5;"><span class="nodeLabel"><p>Backend</p></span></div></foreignObject></g></g><g class="cluster" id="Shared" data-look="classic"><rect style="" x="8" y="8" width="1369.19921875" height="128"/><g class="cluster-label" transform="translate(634.568359375, 8)"><foreignObject width="116.0625" height="24"><div xmlns="http://www.w3.org/1999/xhtml" style="display: table-cell; white-space: nowrap; line-height: 1.5;"><span class="nodeLabel"><p>Общие ресурсы</p></span></div></foreignObject></g></g><g class="cluster" id="MFEs" data-look="classic"><rect style="" x="48.96875" y="388" width="1326.38671875" height="104"/><g class="cluster-label" transform="translate(611.287109375, 388)"><foreignObject width="201.75" height="24"><div xmlns="http://www.w3.org/1999/xhtml" style="display: table-cell; white-space: nowrap; line-height: 1.5;"><span class="nodeLabel"><p>Микрофронтенды (Remote)</p></span></div></foreignObject></g></g><g class="cluster" id="Browser" data-look="classic"><rect style="" x="455.1875" y="210" width="588.765625" height="104"/><g class="cluster-label" transform="translate(720.015625, 210)"><foreignObject width="59.109375" height="24"><div xmlns="http://www.w3.org/1999/xhtml" style="display: table-cell; white-space: nowrap; line-height: 1.5;"><span class="nodeLabel"><p>Браузер</p></span></div></foreignObject></g></g></g><g class="edgePaths"><path d="M640.832,284.655L620.613,289.546C600.393,294.436,559.954,304.218,475.671,315.276C391.387,326.333,263.258,338.667,199.193,351C135.129,363.333,135.129,375.667,137.501,385.443C139.873,395.219,144.618,402.438,146.99,406.048L149.363,409.657" id="L_Shell_Auth_0" class="edge-thickness-normal edge-pattern-solid edge-thickness-normal edge-pattern-solid flowchart-link" style=";" data-edge="true" data-et="edge" data-id="L_Shell_Auth_0" data-points="W3sieCI6NjQwLjgzMjAzMTI1LCJ5IjoyODQuNjU0NjI1NDA2NTc0Mn0seyJ4Ijo1MTkuNTE1NjI1LCJ5IjozMTR9LHsieCI6MTM1LjEyODkwNjI1LCJ5IjozNTF9LHsieCI6MTM1LjEyODkwNjI1LCJ5IjozODh9LHsieCI6MTUxLjU1OTU3MDMxMjUsInkiOjQxM31d" marker-end="url(#my-svg_flowchart-v2-pointEnd)"/><path d="M640.832,286.979L623.946,291.482C607.06,295.986,573.288,304.993,521.28,315.663C469.272,326.333,399.029,338.667,363.907,351C328.785,363.333,328.785,375.667,335.508,385.67C342.231,395.673,355.677,403.345,362.4,407.181L369.123,411.018" id="L_Shell_PB_0" class="edge-thickness-normal edge-pattern-solid edge-thickness-normal edge-pattern-solid flowchart-link" style=";" data-edge="true" data-et="edge" data-id="L_Shell_PB_0" data-points="W3sieCI6NjQwLjgzMjAzMTI1LCJ5IjoyODYuOTc4NTAyNTk0NTE0NDV9LHsieCI6NTM5LjUxNTYyNSwieSI6MzE0fSx7IngiOjMyOC43ODUxNTYyNSwieSI6MzUxfSx7IngiOjMyOC43ODUxNTYyNSwieSI6Mzg4fSx7IngiOjM3Mi41OTcxMzA0MDg2NTM4NywieSI6NDEzfV0=" marker-end="url(#my-svg_flowchart-v2-pointEnd)"/><path d="M655.585,289L643.409,293.167C631.233,297.333,606.88,305.667,594.704,316C582.527,326.333,582.527,338.667,582.527,351C582.527,363.333,582.527,375.667,591.181,385.726C599.834,395.786,617.141,403.573,625.794,407.466L634.448,411.359" id="L_Shell_Cart_0" class="edge-thickness-normal edge-pattern-solid edge-thickness-normal edge-pattern-solid flowchart-link" style=";" data-edge="true" data-et="edge" data-id="L_Shell_Cart_0" data-points="W3sieCI6NjU1LjU4NTQ4Njc3ODg0NjIsInkiOjI4OX0seyJ4Ijo1ODIuNTI3MzQzNzUsInkiOjMxNH0seyJ4Ijo1ODIuNTI3MzQzNzUsInkiOjM1MX0seyJ4Ijo1ODIuNTI3MzQzNzUsInkiOjM4OH0seyJ4Ijo2MzguMDk1NjI4MDA0ODA3NywieSI6NDEzfV0=" marker-end="url(#my-svg_flowchart-v2-pointEnd)"/><path d="M737.831,289L738.347,293.167C738.862,297.333,739.894,305.667,757.813,316C775.732,326.333,810.538,338.667,827.941,351C845.344,363.333,845.344,375.667,851.108,385.633C856.872,395.599,868.4,403.199,874.164,406.999L879.929,410.798" id="L_Shell_Profile_0" class="edge-thickness-normal edge-pattern-solid edge-thickness-normal edge-pattern-solid flowchart-link" style=";" data-edge="true" data-et="edge" data-id="L_Shell_Profile_0" data-points="W3sieCI6NzM3LjgzMDgyOTMyNjkyMzEsInkiOjI4OX0seyJ4Ijo3NDAuOTI1NzgxMjUsInkiOjMxNH0seyJ4Ijo4NDUuMzQzNzUsInkiOjM1MX0seyJ4Ijo4NDUuMzQzNzUsInkiOjM4OH0seyJ4Ijo4ODMuMjY4MTc5MDg2NTM4NSwieSI6NDEzfV0=" marker-end="url(#my-svg_flowchart-v2-pointEnd)"/><path d="M828.145,282.712L851.725,287.927C875.305,293.141,922.465,303.571,963.448,314.952C1004.431,326.333,1039.237,338.667,1056.64,351C1074.043,363.333,1074.043,375.667,1086.806,385.802C1099.568,395.937,1125.094,403.875,1137.856,407.844L1150.619,411.812" id="L_Shell_Order_0" class="edge-thickness-normal edge-pattern-solid edge-thickness-normal edge-pattern-solid flowchart-link" style=";" data-edge="true" data-et="edge" data-id="L_Shell_Order_0" data-points="W3sieCI6ODI4LjE0NDUzMTI1LCJ5IjoyODIuNzExODg2MzY5Mjk5OH0seyJ4Ijo5NjkuNjI1LCJ5IjozMTR9LHsieCI6MTA3NC4wNDI5Njg3NSwieSI6MzUxfSx7IngiOjEwNzQuMDQyOTY4NzUsInkiOjM4OH0seyJ4IjoxMTU0LjQzODQ3NjU2MjUsInkiOjQxM31d" marker-end="url(#my-svg_flowchart-v2-pointEnd)"/><path d="M169.305,467L169.305,471.167C169.305,475.333,169.305,483.667,169.305,492C169.305,500.333,169.305,508.667,169.305,517C169.305,525.333,169.305,533.667,275.587,545.397C381.869,557.126,594.434,572.253,700.716,579.816L806.998,587.379" id="L_Auth_API_0" class="edge-thickness-normal edge-pattern-solid edge-thickness-normal edge-pattern-solid flowchart-link" style=";" data-edge="true" data-et="edge" data-id="L_Auth_API_0" data-points="W3sieCI6MTY5LjMwNDY4NzUsInkiOjQ2N30seyJ4IjoxNjkuMzA0Njg3NSwieSI6NDkyfSx7IngiOjE2OS4zMDQ2ODc1LCJ5Ijo1MTd9LHsieCI6MTY5LjMwNDY4NzUsInkiOjU0Mn0seyJ4Ijo4MTAuOTg4MjgxMjUsInkiOjU4Ny42NjMyNzU3MjQ3NDAzfV0=" marker-end="url(#my-svg_flowchart-v2-pointEnd)"/><path d="M419.914,467L419.914,471.167C419.914,475.333,419.914,483.667,419.914,492C419.914,500.333,419.914,508.667,419.914,517C419.914,525.333,419.914,533.667,484.43,544.821C548.947,555.975,677.979,569.95,742.495,576.937L807.012,583.925" id="L_PB_API_0" class="edge-thickness-normal edge-pattern-solid edge-thickness-normal edge-pattern-solid flowchart-link" style=";" data-edge="true" data-et="edge" data-id="L_PB_API_0" data-points="W3sieCI6NDE5LjkxNDA2MjUsInkiOjQ2N30seyJ4Ijo0MTkuOTE0MDYyNSwieSI6NDkyfSx7IngiOjQxOS45MTQwNjI1LCJ5Ijo1MTd9LHsieCI6NDE5LjkxNDA2MjUsInkiOjU0Mn0seyJ4Ijo4MTAuOTg4MjgxMjUsInkiOjU4NC4zNTU2ODgyNjIyMzg2fV0=" marker-end="url(#my-svg_flowchart-v2-pointEnd)"/><path d="M698.109,467L698.109,471.167C698.109,475.333,698.109,483.667,698.109,492C698.109,500.333,698.109,508.667,698.109,517C698.109,525.333,698.109,533.667,716.277,542.512C734.444,551.357,770.78,560.714,788.947,565.393L807.115,570.071" id="L_Cart_API_0" class="edge-thickness-normal edge-pattern-solid edge-thickness-normal edge-pattern-solid flowchart-link" style=";" data-edge="true" data-et="edge" data-id="L_Cart_API_0" data-points="W3sieCI6Njk4LjEwOTM3NSwieSI6NDY3fSx7IngiOjY5OC4xMDkzNzUsInkiOjQ5Mn0seyJ4Ijo2OTguMTA5Mzc1LCJ5Ijo1MTd9LHsieCI6Njk4LjEwOTM3NSwieSI6NTQyfSx7IngiOjgxMC45ODgyODEyNSwieSI6NTcxLjA2ODYxNjY0MDU1MX1d" marker-end="url(#my-svg_flowchart-v2-pointEnd)"/><path d="M924.227,467L924.227,471.167C924.227,475.333,924.227,483.667,924.227,492C924.227,500.333,924.227,508.667,924.227,517C924.227,525.333,924.227,533.667,922.569,541.396C920.912,549.124,917.598,556.249,915.941,559.811L914.283,563.373" id="L_Profile_API_0" class="edge-thickness-normal edge-pattern-solid edge-thickness-normal edge-pattern-solid flowchart-link" style=";" data-edge="true" data-et="edge" data-id="L_Profile_API_0" data-points="W3sieCI6OTI0LjIyNjU2MjUsInkiOjQ2N30seyJ4Ijo5MjQuMjI2NTYyNSwieSI6NDkyfSx7IngiOjkyNC4yMjY1NjI1LCJ5Ijo1MTd9LHsieCI6OTI0LjIyNjU2MjUsInkiOjU0Mn0seyJ4Ijo5MTIuNTk2MDc4NzI1OTYxNSwieSI6NTY3fV0=" marker-end="url(#my-svg_flowchart-v2-pointEnd)"/><path d="M1241.266,467L1241.266,471.167C1241.266,475.333,1241.266,483.667,1241.266,492C1241.266,500.333,1241.266,508.667,1241.266,517C1241.266,525.333,1241.266,533.667,1199.894,544.138C1158.523,554.609,1075.779,567.218,1034.408,573.523L993.036,579.828" id="L_Order_API_0" class="edge-thickness-normal edge-pattern-solid edge-thickness-normal edge-pattern-solid flowchart-link" style=";" data-edge="true" data-et="edge" data-id="L_Order_API_0" data-points="W3sieCI6MTI0MS4yNjU2MjUsInkiOjQ2N30seyJ4IjoxMjQxLjI2NTYyNSwieSI6NDkyfSx7IngiOjEyNDEuMjY1NjI1LCJ5Ijo1MTd9LHsieCI6MTI0MS4yNjU2MjUsInkiOjU0Mn0seyJ4Ijo5ODkuMDgyMDMxMjUsInkiOjU4MC40MzAxNzU3MTk3NjQyfV0=" marker-end="url(#my-svg_flowchart-v2-pointEnd)"/><path d="M900.035,621L900.035,625.167C900.035,629.333,900.035,637.667,900.035,645.333C900.035,653,900.035,660,900.035,663.5L900.035,667" id="L_API_DB_0" class="edge-thickness-normal edge-pattern-solid edge-thickness-normal edge-pattern-solid flowchart-link" style=";" data-edge="true" data-et="edge" data-id="L_API_DB_0" data-points="W3sieCI6OTAwLjAzNTE1NjI1LCJ5Ijo2MjF9LHsieCI6OTAwLjAzNTE1NjI1LCJ5Ijo2NDZ9LHsieCI6OTAwLjAzNTE1NjI1LCJ5Ijo2NzF9XQ==" marker-end="url(#my-svg_flowchart-v2-pointEnd)"/><path d="M873.922,79.562L758.46,88.968C642.999,98.375,412.076,117.187,296.614,132.76C181.152,148.333,181.152,160.667,181.152,173C181.152,185.333,181.152,197.667,181.152,212.5C181.152,227.333,181.152,244.667,181.152,262C181.152,279.333,181.152,296.667,194.366,311.5C207.579,326.333,234.007,338.667,247.22,351C260.434,363.333,260.434,375.667,253.711,385.67C246.988,395.673,233.542,403.345,226.819,407.181L220.096,411.018" id="L_SharedPkg_Auth_0" class="edge-thickness-normal edge-pattern-dotted edge-thickness-normal edge-pattern-solid flowchart-link" style=";" data-edge="true" data-et="edge" data-id="L_SharedPkg_Auth_0" data-points="W3sieCI6ODczLjkyMTg3NSwieSI6NzkuNTYxODM0MDEyMDYyOTl9LHsieCI6MTgxLjE1MjM0Mzc1LCJ5IjoxMzZ9LHsieCI6MTgxLjE1MjM0Mzc1LCJ5IjoxNzN9LHsieCI6MTgxLjE1MjM0Mzc1LCJ5IjoyMTB9LHsieCI6MTgxLjE1MjM0Mzc1LCJ5IjoyNjJ9LHsieCI6MTgxLjE1MjM0Mzc1LCJ5IjozMTR9LHsieCI6MjYwLjQzMzU5Mzc1LCJ5IjozNTF9LHsieCI6MjYwLjQzMzU5Mzc1LCJ5IjozODh9LHsieCI6MjE2LjYyMTYxOTU5MTM0NjE2LCJ5Ijo0MTN9XQ==" marker-end="url(#my-svg_flowchart-v2-pointEnd)"/><path d="M873.922,82.036L790.736,91.03C707.551,100.024,541.18,118.012,457.994,133.173C374.809,148.333,374.809,160.667,374.809,173C374.809,185.333,374.809,197.667,374.809,212.5C374.809,227.333,374.809,244.667,374.809,262C374.809,279.333,374.809,296.667,388.022,311.5C401.236,326.333,427.663,338.667,440.876,351C454.09,363.333,454.09,375.667,451.718,385.443C449.345,395.219,444.601,402.438,442.228,406.048L439.856,409.657" id="L_SharedPkg_PB_0" class="edge-thickness-normal edge-pattern-dotted edge-thickness-normal edge-pattern-solid flowchart-link" style=";" data-edge="true" data-et="edge" data-id="L_SharedPkg_PB_0" data-points="W3sieCI6ODczLjkyMTg3NSwieSI6ODIuMDM1NzU0MTE2MjEwNzh9LHsieCI6Mzc0LjgwODU5Mzc1LCJ5IjoxMzZ9LHsieCI6Mzc0LjgwODU5Mzc1LCJ5IjoxNzN9LHsieCI6Mzc0LjgwODU5Mzc1LCJ5IjoyMTB9LHsieCI6Mzc0LjgwODU5Mzc1LCJ5IjoyNjJ9LHsieCI6Mzc0LjgwODU5Mzc1LCJ5IjozMTR9LHsieCI6NDU0LjA4OTg0Mzc1LCJ5IjozNTF9LHsieCI6NDU0LjA4OTg0Mzc1LCJ5IjozODh9LHsieCI6NDM3LjY1OTE3OTY4NzUsInkiOjQxM31d" marker-end="url(#my-svg_flowchart-v2-pointEnd)"/><path d="M1050.274,111L1059.199,115.167C1068.123,119.333,1085.972,127.667,1094.896,138C1103.82,148.333,1103.82,160.667,1103.82,173C1103.82,185.333,1103.82,197.667,1103.82,212.5C1103.82,227.333,1103.82,244.667,1103.82,262C1103.82,279.333,1103.82,296.667,1049.349,311.5C994.878,326.333,885.935,338.667,831.464,351C776.992,363.333,776.992,375.667,771.228,385.633C765.464,395.599,753.936,403.199,748.172,406.999L742.407,410.798" id="L_SharedPkg_Cart_0" class="edge-thickness-normal edge-pattern-dotted edge-thickness-normal edge-pattern-solid flowchart-link" style=";" data-edge="true" data-et="edge" data-id="L_SharedPkg_Cart_0" data-points="W3sieCI6MTA1MC4yNzQxNjk5MjE4NzUsInkiOjExMX0seyJ4IjoxMTAzLjgyMDMxMjUsInkiOjEzNn0seyJ4IjoxMTAzLjgyMDMxMjUsInkiOjE3M30seyJ4IjoxMTAzLjgyMDMxMjUsInkiOjIxMH0seyJ4IjoxMTAzLjgyMDMxMjUsInkiOjI2Mn0seyJ4IjoxMTAzLjgyMDMxMjUsInkiOjMxNH0seyJ4Ijo3NzYuOTkyMTg3NSwieSI6MzUxfSx7IngiOjc3Ni45OTIxODc1LCJ5IjozODh9LHsieCI6NzM5LjA2Nzc1ODQxMzQ2MTUsInkiOjQxM31d" marker-end="url(#my-svg_flowchart-v2-pointEnd)"/><path d="M1059.563,97.085L1083.561,103.571C1107.56,110.057,1155.557,123.028,1179.556,135.681C1203.555,148.333,1203.555,160.667,1203.555,173C1203.555,185.333,1203.555,197.667,1203.555,212.5C1203.555,227.333,1203.555,244.667,1203.555,262C1203.555,279.333,1203.555,296.667,1170.577,311.5C1137.6,326.333,1071.646,338.667,1038.669,351C1005.691,363.333,1005.691,375.667,999.726,385.641C993.76,395.616,981.829,403.232,975.863,407.04L969.897,410.848" id="L_SharedPkg_Profile_0" class="edge-thickness-normal edge-pattern-dotted edge-thickness-normal edge-pattern-solid flowchart-link" style=";" data-edge="true" data-et="edge" data-id="L_SharedPkg_Profile_0" data-points="W3sieCI6MTA1OS41NjI1LCJ5Ijo5Ny4wODUyNDY3NjY5NTY5OH0seyJ4IjoxMjAzLjU1NDY4NzUsInkiOjEzNn0seyJ4IjoxMjAzLjU1NDY4NzUsInkiOjE3M30seyJ4IjoxMjAzLjU1NDY4NzUsInkiOjIxMH0seyJ4IjoxMjAzLjU1NDY4NzUsInkiOjI2Mn0seyJ4IjoxMjAzLjU1NDY4NzUsInkiOjMxNH0seyJ4IjoxMDA1LjY5MTQwNjI1LCJ5IjozNTF9LHsieCI6MTAwNS42OTE0MDYyNSwieSI6Mzg4fSx7IngiOjk2Ni41MjU2MTU5ODU1NzY5LCJ5Ijo0MTN9XQ==" marker-end="url(#my-svg_flowchart-v2-pointEnd)"/><path d="M1059.563,89.651L1100.184,97.376C1140.805,105.101,1222.047,120.55,1262.668,134.442C1303.289,148.333,1303.289,160.667,1303.289,173C1303.289,185.333,1303.289,197.667,1303.289,212.5C1303.289,227.333,1303.289,244.667,1303.289,262C1303.289,279.333,1303.289,296.667,1303.289,311.5C1303.289,326.333,1303.289,338.667,1303.289,351C1303.289,363.333,1303.289,375.667,1298.83,385.572C1294.371,395.477,1285.453,402.953,1280.994,406.692L1276.535,410.43" id="L_SharedPkg_Order_0" class="edge-thickness-normal edge-pattern-dotted edge-thickness-normal edge-pattern-solid flowchart-link" style=";" data-edge="true" data-et="edge" data-id="L_SharedPkg_Order_0" data-points="W3sieCI6MTA1OS41NjI1LCJ5Ijo4OS42NTEzMzAxNDUzMTc4fSx7IngiOjEzMDMuMjg5MDYyNSwieSI6MTM2fSx7IngiOjEzMDMuMjg5MDYyNSwieSI6MTczfSx7IngiOjEzMDMuMjg5MDYyNSwieSI6MjEwfSx7IngiOjEzMDMuMjg5MDYyNSwieSI6MjYyfSx7IngiOjEzMDMuMjg5MDYyNSwieSI6MzE0fSx7IngiOjEzMDMuMjg5MDYyNSwieSI6MzUxfSx7IngiOjEzMDMuMjg5MDYyNSwieSI6Mzg4fSx7IngiOjEyNzMuNDcwMTAyMTYzNDYxNCwieSI6NDEzfV0=" marker-end="url(#my-svg_flowchart-v2-pointEnd)"/><path d="M391.328,95.049L416.026,101.874C440.724,108.699,490.12,122.35,514.818,135.341C539.516,148.333,539.516,160.667,539.516,173C539.516,185.333,539.516,197.667,555.758,208.165C571.999,218.664,604.483,227.327,620.725,231.659L636.967,235.991" id="L_VueShared_Shell_0" class="edge-thickness-normal edge-pattern-dotted edge-thickness-normal edge-pattern-solid flowchart-link" style=";" data-edge="true" data-et="edge" data-id="L_VueShared_Shell_0" data-points="W3sieCI6MzkxLjMyODEyNSwieSI6OTUuMDQ4OTgxMjQ0MDk2NjF9LHsieCI6NTM5LjUxNTYyNSwieSI6MTM2fSx7IngiOjUzOS41MTU2MjUsInkiOjE3M30seyJ4Ijo1MzkuNTE1NjI1LCJ5IjoyMTB9LHsieCI6NjQwLjgzMjAzMTI1LCJ5IjoyMzcuMDIxNDk3NDA1NDg1NTV9XQ==" marker-end="url(#my-svg_flowchart-v2-pointEnd)"/><path d="M783.561,99L801.964,105.167C820.366,111.333,857.172,123.667,875.574,136C893.977,148.333,893.977,160.667,893.977,173C893.977,185.333,893.977,197.667,881.831,207.793C869.685,217.92,845.394,225.84,833.248,229.8L821.102,233.76" id="L_PiniaShared_Shell_0" class="edge-thickness-normal edge-pattern-dotted edge-thickness-normal edge-pattern-solid flowchart-link" style=";" data-edge="true" data-et="edge" data-id="L_PiniaShared_Shell_0" data-points="W3sieCI6NzgzLjU2MTQ2MjQwMjM0MzgsInkiOjk5fSx7IngiOjg5My45NzY1NjI1LCJ5IjoxMzZ9LHsieCI6ODkzLjk3NjU2MjUsInkiOjE3M30seyJ4Ijo4OTMuOTc2NTYyNSwieSI6MjEwfSx7IngiOjgxNy4yOTk1MDQyMDY3MzA3LCJ5IjoyMzV9XQ==" marker-end="url(#my-svg_flowchart-v2-pointEnd)"/></g><g class="edgeLabels"><g class="edgeLabel" transform="translate(135.12890625, 351)"><g class="label" data-id="L_Shell_Auth_0" transform="translate(-48.3515625, -12)"><foreignObject width="96.703125" height="24"><div xmlns="http://www.w3.org/1999/xhtml" class="labelBkg" style="display: table-cell; white-space: nowrap; line-height: 1.5; max-width: 200px; text-align: center;"><span class="edgeLabel"><p>loadRemote()</p></span></div></foreignObject></g></g><g class="edgeLabel" transform="translate(328.78515625, 351)"><g class="label" data-id="L_Shell_PB_0" transform="translate(-48.3515625, -12)"><foreignObject width="96.703125" height="24"><div xmlns="http://www.w3.org/1999/xhtml" class="labelBkg" style="display: table-cell; white-space: nowrap; line-height: 1.5; max-width: 200px; text-align: center;"><span class="edgeLabel"><p>loadRemote()</p></span></div></foreignObject></g></g><g class="edgeLabel" transform="translate(582.52734375, 351)"><g class="label" data-id="L_Shell_Cart_0" transform="translate(-48.3515625, -12)"><foreignObject width="96.703125" height="24"><div xmlns="http://www.w3.org/1999/xhtml" class="labelBkg" style="display: table-cell; white-space: nowrap; line-height: 1.5; max-width: 200px; text-align: center;"><span class="edgeLabel"><p>loadRemote()</p></span></div></foreignObject></g></g><g class="edgeLabel" transform="translate(845.34375, 351)"><g class="label" data-id="L_Shell_Profile_0" transform="translate(-48.3515625, -12)"><foreignObject width="96.703125" height="24"><div xmlns="http://www.w3.org/1999/xhtml" class="labelBkg" style="display: table-cell; white-space: nowrap; line-height: 1.5; max-width: 200px; text-align: center;"><span class="edgeLabel"><p>loadRemote()</p></span></div></foreignObject></g></g><g class="edgeLabel" transform="translate(1074.04296875, 351)"><g class="label" data-id="L_Shell_Order_0" transform="translate(-48.3515625, -12)"><foreignObject width="96.703125" height="24"><div xmlns="http://www.w3.org/1999/xhtml" class="labelBkg" style="display: table-cell; white-space: nowrap; line-height: 1.5; max-width: 200px; text-align: center;"><span class="edgeLabel"><p>loadRemote()</p></span></div></foreignObject></g></g><g class="edgeLabel"><g class="label" data-id="L_Auth_API_0" transform="translate(0, 0)"><foreignObject width="0" height="0"><div xmlns="http://www.w3.org/1999/xhtml" class="labelBkg" style="display: table-cell; white-space: nowrap; line-height: 1.5; max-width: 200px; text-align: center;"><span class="edgeLabel"></span></div></foreignObject></g></g><g class="edgeLabel"><g class="label" data-id="L_PB_API_0" transform="translate(0, 0)"><foreignObject width="0" height="0"><div xmlns="http://www.w3.org/1999/xhtml" class="labelBkg" style="display: table-cell; white-space: nowrap; line-height: 1.5; max-width: 200px; text-align: center;"><span class="edgeLabel"></span></div></foreignObject></g></g><g class="edgeLabel"><g class="label" data-id="L_Cart_API_0" transform="translate(0, 0)"><foreignObject width="0" height="0"><div xmlns="http://www.w3.org/1999/xhtml" class="labelBkg" style="display: table-cell; white-space: nowrap; line-height: 1.5; max-width: 200px; text-align: center;"><span class="edgeLabel"></span></div></foreignObject></g></g><g class="edgeLabel"><g class="label" data-id="L_Profile_API_0" transform="translate(0, 0)"><foreignObject width="0" height="0"><div xmlns="http://www.w3.org/1999/xhtml" class="labelBkg" style="display: table-cell; white-space: nowrap; line-height: 1.5; max-width: 200px; text-align: center;"><span class="edgeLabel"></span></div></foreignObject></g></g><g class="edgeLabel"><g class="label" data-id="L_Order_API_0" transform="translate(0, 0)"><foreignObject width="0" height="0"><div xmlns="http://www.w3.org/1999/xhtml" class="labelBkg" style="display: table-cell; white-space: nowrap; line-height: 1.5; max-width: 200px; text-align: center;"><span class="edgeLabel"></span></div></foreignObject></g></g><g class="edgeLabel"><g class="label" data-id="L_API_DB_0" transform="translate(0, 0)"><foreignObject width="0" height="0"><div xmlns="http://www.w3.org/1999/xhtml" class="labelBkg" style="display: table-cell; white-space: nowrap; line-height: 1.5; max-width: 200px; text-align: center;"><span class="edgeLabel"></span></div></foreignObject></g></g><g class="edgeLabel" transform="translate(181.15234375, 262)"><g class="label" data-id="L_SharedPkg_Auth_0" transform="translate(-39.8671875, -12)"><foreignObject width="79.734375" height="24"><div xmlns="http://www.w3.org/1999/xhtml" class="labelBkg" style="display: table-cell; white-space: nowrap; line-height: 1.5; max-width: 200px; text-align: center;"><span class="edgeLabel"><p>npm install</p></span></div></foreignObject></g></g><g class="edgeLabel" transform="translate(374.80859375, 262)"><g class="label" data-id="L_SharedPkg_PB_0" transform="translate(-39.8671875, -12)"><foreignObject width="79.734375" height="24"><div xmlns="http://www.w3.org/1999/xhtml" class="labelBkg" style="display: table-cell; white-space: nowrap; line-height: 1.5; max-width: 200px; text-align: center;"><span class="edgeLabel"><p>npm install</p></span></div></foreignObject></g></g><g class="edgeLabel" transform="translate(1103.8203125, 262)"><g class="label" data-id="L_SharedPkg_Cart_0" transform="translate(-39.8671875, -12)"><foreignObject width="79.734375" height="24"><div xmlns="http://www.w3.org/1999/xhtml" class="labelBkg" style="display: table-cell; white-space: nowrap; line-height: 1.5; max-width: 200px; text-align: center;"><span class="edgeLabel"><p>npm install</p></span></div></foreignObject></g></g><g class="edgeLabel" transform="translate(1203.5546875, 262)"><g class="label" data-id="L_SharedPkg_Profile_0" transform="translate(-39.8671875, -12)"><foreignObject width="79.734375" height="24"><div xmlns="http://www.w3.org/1999/xhtml" class="labelBkg" style="display: table-cell; white-space: nowrap; line-height: 1.5; max-width: 200px; text-align: center;"><span class="edgeLabel"><p>npm install</p></span></div></foreignObject></g></g><g class="edgeLabel" transform="translate(1303.2890625, 262)"><g class="label" data-id="L_SharedPkg_Order_0" transform="translate(-39.8671875, -12)"><foreignObject width="79.734375" height="24"><div xmlns="http://www.w3.org/1999/xhtml" class="labelBkg" style="display: table-cell; white-space: nowrap; line-height: 1.5; max-width: 200px; text-align: center;"><span class="edgeLabel"><p>npm install</p></span></div></foreignObject></g></g><g class="edgeLabel" transform="translate(539.515625, 173)"><g class="label" data-id="L_VueShared_Shell_0" transform="translate(-32.46875, -12)"><foreignObject width="64.9375" height="24"><div xmlns="http://www.w3.org/1999/xhtml" class="labelBkg" style="display: table-cell; white-space: nowrap; line-height: 1.5; max-width: 200px; text-align: center;"><span class="edgeLabel"><p>singleton</p></span></div></foreignObject></g></g><g class="edgeLabel" transform="translate(893.9765625, 173)"><g class="label" data-id="L_PiniaShared_Shell_0" transform="translate(-32.46875, -12)"><foreignObject width="64.9375" height="24"><div xmlns="http://www.w3.org/1999/xhtml" class="labelBkg" style="display: table-cell; white-space: nowrap; line-height: 1.5; max-width: 200px; text-align: center;"><span class="edgeLabel"><p>singleton</p></span></div></foreignObject></g></g></g><g class="nodes"><g class="node default" id="flowchart-Shell-0" transform="translate(734.48828125, 262)"><rect class="basic label-container" style="" x="-93.65625" y="-27" width="187.3125" height="54"/><g class="label" style="" transform="translate(-63.65625, -12)"><rect/><foreignObject width="127.3125" height="24"><div xmlns="http://www.w3.org/1999/xhtml" style="display: table-cell; white-space: nowrap; line-height: 1.5; max-width: 200px; text-align: center;"><span class="nodeLabel"><p>Shell (Host) :5010</p></span></div></foreignObject></g></g><g class="node default" id="flowchart-Auth-1" transform="translate(169.3046875, 440)"><rect class="basic label-container" style="" x="-85.3359375" y="-27" width="170.671875" height="54"/><g class="label" style="" transform="translate(-55.3359375, -12)"><rect/><foreignObject width="110.671875" height="24"><div xmlns="http://www.w3.org/1999/xhtml" style="display: table-cell; white-space: nowrap; line-height: 1.5; max-width: 200px; text-align: center;"><span class="nodeLabel"><p>Auth MFE :5001</p></span></div></foreignObject></g></g><g class="node default" id="flowchart-PB-2" transform="translate(419.9140625, 440)"><rect class="basic label-container" style="" x="-115.2734375" y="-27" width="230.546875" height="54"/><g class="label" style="" transform="translate(-85.2734375, -12)"><rect/><foreignObject width="170.546875" height="24"><div xmlns="http://www.w3.org/1999/xhtml" style="display: table-cell; white-space: nowrap; line-height: 1.5; max-width: 200px; text-align: center;"><span class="nodeLabel"><p>Pizza-Builder MFE :5002</p></span></div></foreignObject></g></g><g class="node default" id="flowchart-Cart-3" transform="translate(698.109375, 440)"><rect class="basic label-container" style="" x="-83.96875" y="-27" width="167.9375" height="54"/><g class="label" style="" transform="translate(-53.96875, -12)"><rect/><foreignObject width="107.9375" height="24"><div xmlns="http://www.w3.org/1999/xhtml" style="display: table-cell; white-space: nowrap; line-height: 1.5; max-width: 200px; text-align: center;"><span class="nodeLabel"><p>Cart MFE :5003</p></span></div></foreignObject></g></g><g class="node default" id="flowchart-Profile-4" transform="translate(924.2265625, 440)"><rect class="basic label-container" style="" x="-92.1484375" y="-27" width="184.296875" height="54"/><g class="label" style="" transform="translate(-62.1484375, -12)"><rect/><foreignObject width="124.296875" height="24"><div xmlns="http://www.w3.org/1999/xhtml" style="display: table-cell; white-space: nowrap; line-height: 1.5; max-width: 200px; text-align: center;"><span class="nodeLabel"><p>Profile MFE :5004</p></span></div></foreignObject></g></g><g class="node default" id="flowchart-Order-5" transform="translate(1241.265625, 440)"><rect class="basic label-container" style="" x="-89.1328125" y="-27" width="178.265625" height="54"/><g class="label" style="" transform="translate(-59.1328125, -12)"><rect/><foreignObject width="118.265625" height="24"><div xmlns="http://www.w3.org/1999/xhtml" style="display: table-cell; white-space: nowrap; line-height: 1.5; max-width: 200px; text-align: center;"><span class="nodeLabel"><p>Order MFE :5005</p></span></div></foreignObject></g></g><g class="node default" id="flowchart-SharedPkg-6" transform="translate(966.7421875, 72)"><rect class="basic label-container" style="" x="-92.8203125" y="-39" width="185.640625" height="78"/><g class="label" style="" transform="translate(-62.8203125, -24)"><rect/><foreignObject width="125.640625" height="48"><div xmlns="http://www.w3.org/1999/xhtml" style="display: table-cell; white-space: nowrap; line-height: 1.5; max-width: 200px; text-align: center;"><span class="nodeLabel"><p>@pizza/shared<br />(Verdaccio :4873)</p></span></div></foreignObject></g></g><g class="node default" id="flowchart-VueShared-7" transform="translate(307.921875, 72)"><rect class="basic label-container" style="" x="-83.40625" y="-27" width="166.8125" height="54"/><g class="label" style="" transform="translate(-53.40625, -12)"><rect/><foreignObject width="106.8125" height="24"><div xmlns="http://www.w3.org/1999/xhtml" style="display: table-cell; white-space: nowrap; line-height: 1.5; max-width: 200px; text-align: center;"><span class="nodeLabel"><p>vue (singleton)</p></span></div></foreignObject></g></g><g class="node default" id="flowchart-PiniaShared-8" transform="translate(702.98828125, 72)"><rect class="basic label-container" style="" x="-88.34375" y="-27" width="176.6875" height="54"/><g class="label" style="" transform="translate(-58.34375, -12)"><rect/><foreignObject width="116.6875" height="24"><div xmlns="http://www.w3.org/1999/xhtml" style="display: table-cell; white-space: nowrap; line-height: 1.5; max-width: 200px; text-align: center;"><span class="nodeLabel"><p>pinia (singleton)</p></span></div></foreignObject></g></g><g class="node default" id="flowchart-API-9" transform="translate(900.03515625, 594)"><rect class="basic label-container" style="" x="-89.046875" y="-27" width="178.09375" height="54"/><g class="label" style="" transform="translate(-59.046875, -12)"><rect/><foreignObject width="118.09375" height="24"><div xmlns="http://www.w3.org/1999/xhtml" style="display: table-cell; white-space: nowrap; line-height: 1.5; max-width: 200px; text-align: center;"><span class="nodeLabel"><p>NestJS API :3000</p></span></div></foreignObject></g></g><g class="node default" id="flowchart-DB-10" transform="translate(900.03515625, 706.6089706420898)"><path d="M0,10.741783702858772 a47.0859375,10.741783702858772 0,0,0 94.171875,0 a47.0859375,10.741783702858772 0,0,0 -94.171875,0 l0,49.74178370285877 a47.0859375,10.741783702858772 0,0,0 94.171875,0 l0,-49.74178370285877" class="basic label-container" style="" transform="translate(-47.0859375, -35.61267555428816)"/><g class="label" style="" transform="translate(-39.5859375, -2)"><rect/><foreignObject width="79.171875" height="24"><div xmlns="http://www.w3.org/1999/xhtml" style="display: table-cell; white-space: nowrap; line-height: 1.5; max-width: 200px; text-align: center;"><span class="nodeLabel"><p>PostgreSQL</p></span></div></foreignObject></g></g></g></g></g></svg>